inDegrees=yes
name=ik_S57_A02_T03
DataType=double
version=3
OpenSimVersion=4.3-2021-08-27-4bc7ad9
endheader
time	pelvis_tilt	pelvis_list	pelvis_rotation	pelvis_tx	pelvis_ty	pelvis_tz	hip_flexion_r	hip_adduction_r	hip_rotation_r	knee_angle_r	knee_angle_r_beta	ankle_angle_r	subtalar_angle_r	mtp_angle_r	hip_flexion_l	hip_adduction_l	hip_rotation_l	knee_angle_l	knee_angle_l_beta	ankle_angle_l	subtalar_angle_l	mtp_angle_l	lumbar_extension	lumbar_bending	lumbar_rotation	arm_flex_r	arm_add_r	arm_rot_r	elbow_flex_r	pro_sup_r	wrist_flex_r	wrist_dev_r	arm_flex_l	arm_add_l	arm_rot_l	elbow_flex_l	pro_sup_l	wrist_flex_l	wrist_dev_l
47.52000000000183	1.450433872597242	-3.501077781993609	93.92843214957541	0	0.9399999999999999	0	-0.5158824354064729	3.188498667774994	-5.372531458618528	11.9277627154735	0.2081787317816321	0	0	0	14.39858776732421	-1.482762102580867	4.863922708988161	-1.208384198713982	-0.02109028289663241	0	0	0	0	0	0	39.6463721956351	-39.6463721956352	4.88762417648121	83.52142279508152	85.11237609334182	0	0	39.6463721956351	-39.6463721956352	4.88762417648121	83.52142279508152	85.1123760933213	0	0
47.54000000000183	1.44947172124747	-3.500031670820748	93.92789659870121	0	0.9399999999999999	0	-0.172293306750884	3.497567149554427	-5.857240470022154	11.67616307182968	0.2037874896032031	0	0	0	14.38630035931331	-1.533011250723479	4.801100500437942	-1.979813747500347	-0.03455426847012871	0	0	0	0	0	0	39.6475539551408	-39.64755395514089	4.887674053516071	83.52207920627892	85.11232621630913	0	0	39.6475539551408	-39.64755395514089	4.887674053516071	83.52207920627892	85.11232621628864	0	0
47.56000000000184	1.260626163701011	-3.823100169770651	95.07523638932207	0	0.9399999999999999	0	0.5051401325597119	3.721237898568234	-6.842091873448636	11.02578050220957	0.192436172365751	0	0	0	14.28070799096441	-1.958140589143859	5.188967712686571	-3.593830102678113	-0.06272416804901895	0	0	0	0	0	0	39.64846569468736	-39.64846569468745	4.887712511146035	83.52258533107857	85.11228775868086	0	0	39.64846569468736	-39.64846569468745	4.887712511146035	83.52258533107857	85.11228775866036	0	0
47.58000000000184	1.083539272060921	-4.028980514785935	95.48569261465485	0	0.9399999999999999	0	0.6802357840079075	4.275332847538009	-7.186304049107553	9.873333019309053	0.1723221693328158	0	0	0	14.41514541299733	-1.744286140116136	5.365328621571805	-5.024648116220257	-0.08769665338217418	0	0	0	0	0	0	39.64975949809447	-39.64975949809457	4.887767052715292	83.52330312949749	85.11223321711397	0	0	39.64975949809447	-39.64975949809457	4.887767052715292	83.52330312949749	85.1122332170935	0	0
47.60000000000184	0.9476844244985994	-4.093593088515743	95.97481376410563	0	0.9399999999999999	0	0.8567017071894839	4.223762391105595	-7.458773319222079	9.396242228994902	0.163995364210892	0	0	0	13.96383535905292	-2.772008177911945	5.223201180313436	-6.279217303557326	-0.1095930163952756	0	0	0	0	0	0	39.65140909465608	-39.65140909465617	4.887836603206249	83.52421845367502	85.11216366662602	0	0	39.65140909465608	-39.65140909465617	4.887836603206249	83.52421845367502	85.11216366660567	0	0
47.62000000000184	0.9294623799179309	-4.09186800839206	95.97148524590209	0	0.9399999999999999	0	1.129741749788884	4.459136609136818	-7.264106789697974	9.260165328049455	0.1616203742534838	0	0	0	13.77318608546021	-3.176881945642871	4.690681101599072	-6.383821176150905	-0.1114186983823702	0	0	0	0	0	0	39.65196462893009	-39.65196462893019	4.887860038136955	83.52452687086709	85.11214023169632	0	0	39.65196462893009	-39.65196462893019	4.887860038136955	83.52452687086709	85.11214023167597	0	0
47.64000000000185	0.6709049435118517	-4.326859144270151	97.15164202916216	0	0.9399999999999999	0	1.897965192495281	4.127191754759079	-7.746558909572933	9.092490220846869	0.1586938915591642	0	0	0	14.06976664295207	-2.796519344721776	5.001940701093258	-5.399005602832236	-0.09423042410304382	0	0	0	0	0	0	39.65320549409614	-39.65320549409624	4.887912392676288	83.52521588677853	85.11208787715928	0	0	39.65320549409614	-39.65320549409624	4.887912392676288	83.52521588677853	85.11208787713893	0	0
47.66000000000185	0.6697047956485589	-4.32494175351676	97.15371996798554	0	0.9399999999999999	0	2.363445991573336	5.048435929621917	-5.919066569432549	8.392295786615726	0.1464731932776919	0	0	0	14.48500930096072	-2.883371668536065	4.164804172924347	-3.213415851391319	-0.05608468684255533	0	0	0	0	0	0	39.65610451912685	-39.65610451912694	4.888034551213368	83.52682356126458	85.11196571862754	0	0	39.65610451912685	-39.65610451912694	4.888034551213368	83.52682356126458	85.11196571860722	0	0
47.68000000000185	0.6595479558611207	-4.329986981533744	97.12663773019567	0	0.9399999999999999	0	2.639622114457584	5.08052344266583	-5.679295773479241	8.143646681398423	0.1421334477095121	0	0	0	15.59879891858202	-2.852284639238765	2.836172932298401	0.3764547083239967	0.006570374144888647	0	0	0	0	0	0	39.65978250927712	-39.65978250927721	4.888189309696373	83.5288602662431	85.11181096015126	0	0	39.65978250927712	-39.65978250927721	4.888189309696373	83.5288602662431	85.11181096013108	0	0
47.70000000000186	0.654423664317168	-4.333670937617615	97.12605600446611	0	0.9399999999999999	0	2.946656436581071	5.058778754901378	-5.365724147925549	7.937001716054541	0.1385268126815918	0	0	0	15.94757020956068	-2.640890083429712	2.370950534587548	2.208334522058718	0.03854270839537997	0	0	0	0	0	0	39.66070068243951	-39.66070068243961	4.888227935680551	83.52936860488175	85.11177233416875	0	0	39.66070068243951	-39.66070068243961	4.888227935680551	83.52936860488175	85.11177233414857	0	0
47.72000000000186	0.6695904379230815	-4.334052595578354	97.15352718522919	0	0.9399999999999999	0	3.259974785556206	5.16042634401724	-5.014319738384254	7.634786332751644	0.1332521591927796	0	0	0	16.03398568697471	-2.572733424617634	1.671215022685068	8.871594487359131	0.1548385337061953	0	0	0	0	0	0	39.76945108612635	-39.76945108612644	4.892127009581723	83.58067629918386	85.10787326043382	0	0	39.76945108612635	-39.76945108612644	4.892127009581723	83.58067629918386	85.10787326041435	0	0
47.74000000000186	0.6697687867867963	-4.327673520132557	97.15049690836227	0	0.9399999999999999	0	3.430230637914008	5.152347575949632	-5.07511160852922	7.29354088787158	0.1272963026221896	0	0	0	16.04926739056538	-2.692193270346863	1.149983648311997	12.705127018451	0.2217462983560603	0	0	0	0	0	0	39.77198981363257	-39.77198981363267	4.892231456312901	83.58205083897109	85.10776881370705	0	0	39.77198981363257	-39.77198981363267	4.892231456312901	83.58205083897109	85.10776881368758	0	0
